<?xml version="1.0" encoding="utf-8"?>
<!-- Svg Vector Icons : http://www.onlinewebfonts.com/icon -->
<!DOCTYPE svg PUBLIC "-//W3C//DTD SVG 1.1//EN" "http://www.w3.org/Graphics/SVG/1.1/DTD/svg11.dtd">
<svg version="1.1" xmlns="http://www.w3.org/2000/svg" xmlns:xlink="http://www.w3.org/1999/xlink" x="0px" y="0px" viewBox="0 0 1000 1000" enable-background="new 0 0 1000 1000" xml:space="preserve">
<metadata> Svg Vector Icons : http://www.onlinewebfonts.com/icon </metadata>
<g><path d="M500,10C229.4,10,10,229.4,10,500s219.4,490,490,490s490-219.4,490-490S770.6,10,500,10z M380.1,703.1h-99.2V383.8h99.2V703.1z M329.8,344.6c-31.3,0-51.6-22.2-51.6-49.7c0-28,20.9-49.6,52.9-49.6c32,0,51.6,21.5,52.2,49.6C383.3,322.4,363.1,344.6,329.8,344.6z M742.4,703.1h-99.2v-177c0-41.2-14.4-69.2-50.3-69.2c-27.4,0-43.7,18.9-50.9,37.2c-2.7,6.5-3.3,15.7-3.3,24.8V703h-99.3V485.6c0-39.9-1.3-73.2-2.6-101.9h86.2l4.5,44.4h2c13.1-20.8,45.1-51.6,98.6-51.6c65.3,0,114.2,43.7,114.2,137.8V703.1z"/></g>
</svg>